<?xml version="1.0" standalone="no"?><!DOCTYPE svg PUBLIC "-//W3C//DTD SVG 1.1//EN" "http://www.w3.org/Graphics/SVG/1.1/DTD/svg11.dtd"><svg t="1695633243218" class="icon" viewBox="0 0 1024 1024" version="1.1" xmlns="http://www.w3.org/2000/svg" p-id="1474" xmlns:xlink="http://www.w3.org/1999/xlink" width="200" height="200"><path d="M938.666667 10.666667c20.608 0 39.274667 8.362667 52.8 21.866666a74.432 74.432 0 0 1 21.717333 48.085334L1013.333333 85.333333v853.333334c0 20.608-8.362667 39.274667-21.866666 52.8a74.432 74.432 0 0 1-48.085334 21.717333L938.666667 1013.333333H85.333333a74.432 74.432 0 0 1-52.8-21.866666A74.432 74.432 0 0 1 10.816 943.36L10.666667 938.666667V85.333333c0-20.608 8.362667-39.274667 21.866666-52.8A74.432 74.432 0 0 1 80.64 10.816L85.333333 10.666667h853.333334zM347.093333 198.378667h-36.565333l-6.144 0.106666c-22.101333 0.789333-39.786667 5.952-53.226667 14.954667-14.4 9.642667-23.466667 26.944-24.533333 59.946667v459.349333l0.128 5.845333c0.896 22.869333 7.125333 39.850667 17.706667 51.413334 12.074667 13.184 27.584 19.904 46.677333 19.904 19.733333 0 35.434667-6.869333 47.338667-20.181334 10.325333-11.562667 16.597333-28.181333 17.557333-56.810666v-314.666667l72 286.208 3.178667 12.096c2.090667 7.936 4.138667 15.637333 6.186666 23.125333 3.264 12.138667 7.786667 23.189333 13.482667 33.194667a74.666667 74.666667 0 0 0 25.792 26.496c11.029333 6.912 24.490667 10.538667 40.469333 10.538667 21.376 0 37.866667-5.802667 49.877334-16.576 11.797333-10.581333 19.776-22.357333 24.149333-35.2 3.541333-10.325333 8.021333-26.026667 15.082667-53.610667l72.021333-286.250667v314.453334l0.106667 5.781333c0.896 22.613333 7.104 39.573333 17.706666 51.264 12.074667 13.376 27.498667 20.138667 46.293334 20.138667 20.032 0 35.861333-6.890667 47.744-20.181334 10.325333-11.562667 16.576-28.181333 17.557333-56.810666V273.557333l-0.106667-5.546666c-1.066667-27.157333-9.92-44.842667-24.426666-54.570667-13.269333-8.896-30.677333-14.144-59.2-15.061333H687.36l-6.314667 0.064c-20.522667 0.384-35.605333 2.730667-45.354666 6.613333-12.416 4.992-21.696 13.866667-27.690667 26.837333-4.458667 9.664-9.557333 24.853333-16.853333 51.968l-74.005334 279.018667-73.984-278.997333-1.706666-6.378667c-5.610667-20.714667-10.666667-35.925333-15.146667-45.610667-5.973333-12.970667-15.274667-21.845333-27.712-26.816-9.706667-3.882667-24.725333-6.293333-51.498667-6.698666z" fill="#A8B7C7" p-id="1475"></path></svg>